<?xml version="1.0" encoding="iso-8859-1"?>
<!-- Generator: Adobe Illustrator 19.0.0, SVG Export Plug-In . SVG Version: 6.00 Build 0)  -->
<svg version="1.1" id="Layer_1" xmlns="http://www.w3.org/2000/svg" xmlns:xlink="http://www.w3.org/1999/xlink" x="0px" y="0px"
	 viewBox="0 0 512 512" style="enable-background:new 0 0 512 512;" xml:space="preserve">
<path style="fill:#5D9EBA;" d="M137.873,147.248c-41.739-9.343-68.778-26.916-68.778-56.657C69.095,40.567,145.583,0,239.937,0
	S410.78,40.567,410.78,90.591c0,29.74-27.039,47.314-68.778,56.657L137.873,147.248L137.873,147.248z"/>
<path style="fill:#508DA3;" d="M117.02,90.591c0-45.712,63.874-83.52,146.88-89.7C256.07,0.308,248.072,0,239.937,0
	C145.583,0,69.095,40.567,69.095,90.591c0,29.74,27.039,47.314,68.778,56.657h47.926C144.06,137.905,117.02,120.332,117.02,90.591z"
	/>
<rect x="356.422" y="266.125" style="fill:#AF7C38;" width="146.71" height="184.856"/>
<g>
	<path style="fill:#E0B394;" d="M120.791,241.38c-14.15-0.628-25.412-12.301-25.412-26.599c0-14.697,11.913-26.622,26.622-26.622
		c1.324,0,2.625,0.091,3.903,0.285L120.791,241.38z"/>
	<path style="fill:#E0B394;" d="M359.073,241.38c14.15-0.628,25.423-12.301,25.423-26.599c0-14.697-11.924-26.622-26.633-26.622
		c-1.324,0-2.636,0.103-3.903,0.285L359.073,241.38z"/>
</g>
<path style="fill:#5D9EBA;" d="M364.318,408.412V512H115.561V408.412c0-12.712,3.366-24.648,9.243-34.952
	c5.272-9.22,12.563-17.151,21.281-23.164c11.377-7.862,25.172-12.461,40.052-12.461h107.605
	C332.722,337.836,364.318,369.432,364.318,408.412z"/>
<path style="fill:#E0B394;" d="M290.293,235.258v104.921c0,27.807-22.546,50.353-50.353,50.353
	c-27.815,0-50.353-22.546-50.353-50.353V221.566L290.293,235.258z"/>
<path style="fill:#508DA3;" d="M229.615,337.837h-43.482c-38.975,0-70.572,31.596-70.572,70.572v103.589h43.482v-103.59
	C159.044,369.432,190.64,337.837,229.615,337.837z"/>
<path style="fill:#F7CBA4;" d="M201.425,356.452l-46.841-34.032c-24.753-17.984-38.143-47.723-35.2-78.177l8.125-84.073
	c2.696-27.903,15.392-52.62,34.334-70.742c20.366-19.485,47.953-3.526,78.095-3.526l0,0c31.062,0,59.41-15.223,79.939,5.332
	c17.92,17.942,29.882,41.95,32.49,68.937l8.125,84.073c2.943,30.455-10.447,60.192-35.2,78.177l-46.841,34.032
	C255.485,373.137,224.389,373.137,201.425,356.452z"/>
<path style="fill:#F9C573;" d="M362.595,512h-52.308L124.804,373.46c5.272-9.22,12.563-17.151,21.281-23.164L362.595,512z"/>
<path style="fill:#E8BA97;" d="M148.533,260.813c-0.787,13.316,3.549,26.416,12.13,36.629l48.956,60.158
	c2.556,3.047,5.454,5.603,8.592,7.645c-5.888-2.054-11.548-4.998-16.785-8.798l-46.842-34.027
	c-24.75-17.984-38.135-47.72-35.191-78.176l8.113-84.075c5.546-57.34,53.312-73.434,110.743-74.267
	c-35.374,0.856-75.429,6.406-77.518,41.917L148.533,260.813z"/>
<path style="fill:#E2AF66;" d="M149.988,114.268c0,22.628,40.271,40.971,89.949,40.971s89.949-18.343,89.949-40.971
	C329.885,114.268,149.988,114.268,149.988,114.268z"/>
<g>
	<path style="fill:#4D4D4D;" d="M189.14,244.645c-4.728,0-8.558-3.832-8.558-8.558v-13.689c0-4.726,3.831-8.558,8.558-8.558
		s8.558,3.832,8.558,8.558v13.689C197.698,240.814,193.866,244.645,189.14,244.645z"/>
	<path style="fill:#4D4D4D;" d="M290.735,244.645c-4.728,0-8.558-3.832-8.558-8.558v-13.689c0-4.726,3.831-8.558,8.558-8.558
		s8.558,3.832,8.558,8.558v13.689C299.293,240.814,295.462,244.645,290.735,244.645z"/>
</g>
<path style="fill:#E0B394;" d="M253.06,209.847v40.509c0,7.247-5.875,13.123-13.123,13.123l0,0c-7.247,0-13.123-5.875-13.123-13.123
	v-40.509H253.06z"/>
<path style="fill:#F9C573;" d="M346.575,93.734v37.759H133.316l0.308-37.975c0.068-9.094,6.527-16.9,15.462-18.623
	c13.123-2.545,26.371-4.519,39.676-5.945c47.401-5.066,95.658-3.07,142.362,6.002C340.105,76.697,346.575,84.594,346.575,93.734z"/>
<path style="fill:#E2AF66;" d="M189.024,131.492h-55.708l0.308-37.975c0.068-9.094,6.527-16.9,15.462-18.623
	c13.123-2.545,26.371-4.519,39.676-5.945L189.024,131.492z"/>
<path style="fill:#F9C573;" d="M337.681,425.439h-44.503c-4.728,0-8.558-3.832-8.558-8.558c0-4.726,3.831-8.558,8.558-8.558h44.503
	c4.728,0,8.558,3.832,8.558,8.558C346.239,421.607,342.407,425.439,337.681,425.439z"/>
<polygon style="fill:#EAD5B9;" points="175.645,411.994 8.868,411.994 8.868,511.997 92.257,511.997 175.645,511.997 "/>
<polygon style="fill:#FCE8CA;" points="8.868,411.994 92.257,477.228 175.645,411.994 "/>
<g>
	<path style="fill:#AF7C38;" d="M291.45,269.378h-51.512v7.115c0,13.234,10.729,23.963,23.963,23.963h51.512v-7.115
		C315.413,280.107,304.684,269.378,291.45,269.378z"/>
	<path style="fill:#AF7C38;" d="M188.425,269.378h51.512v7.115c0,13.234-10.729,23.963-23.963,23.963h-51.512v-7.115
		C164.462,280.107,175.191,269.378,188.425,269.378z"/>
</g>
<path style="fill:#5D9EBA;" d="M252.495,112.649h-25.104c-4.728,0-8.558-3.832-8.558-8.558c0-4.726,3.831-8.558,8.558-8.558h25.104
	c4.728,0,8.558,3.832,8.558,8.558C261.053,108.818,257.223,112.649,252.495,112.649z"/>
<rect x="389.856" y="251.291" style="fill:#F9C573;" width="79.363" height="29.668"/>
<rect x="381.629" y="292.689" style="fill:#FCE8CA;" width="99.823" height="136.303"/>
<g>
	<rect x="398.448" y="328.885" style="fill:#666666;" width="66.183" height="11.411"/>
	<rect x="398.448" y="354.4" style="fill:#666666;" width="66.183" height="11.411"/>
	<rect x="398.448" y="379.926" style="fill:#666666;" width="66.183" height="11.411"/>
</g>
<circle style="fill:#F9C573;" cx="315.434" cy="442.686" r="7.227"/>
<g>
	<path style="fill:#666666;" d="M271.168,191.075c0,0,0.023-0.227,0.099-0.617c0.088-0.378,0.177-0.975,0.369-1.65
		c0.086-0.349,0.196-0.713,0.323-1.114c0.165-0.406,0.388-0.815,0.624-1.278c0.234-0.466,0.529-0.925,0.84-1.442
		c0.313-0.525,0.686-0.923,1.068-1.43c0.388-0.487,0.825-0.959,1.281-1.465c0.483-0.458,1.006-0.908,1.563-1.361
		c1.09-0.96,2.421-1.653,3.809-2.425c1.435-0.607,2.959-1.265,4.591-1.57c1.616-0.42,3.31-0.519,5-0.598
		c1.69,0.078,3.386,0.168,5.003,0.585c1.633,0.301,3.157,0.963,4.594,1.566c1.389,0.77,2.722,1.463,3.812,2.424
		c0.556,0.454,1.081,0.906,1.564,1.361c0.456,0.508,0.891,0.984,1.281,1.467c0.377,0.504,0.768,0.919,1.054,1.423
		c0.288,0.502,0.566,0.952,0.792,1.407c0.225,0.456,0.443,0.858,0.607,1.263c0.149,0.422,0.282,0.804,0.38,1.166
		c0.217,0.7,0.307,1.301,0.39,1.677c0.073,0.389,0.089,0.61,0.089,0.61s-0.236-0.006-0.636-0.045
		c-0.388-0.05-0.99-0.075-1.656-0.172c-0.345-0.035-0.696-0.099-1.083-0.151c-0.412-0.019-0.818-0.076-1.26-0.111
		c-0.866-0.091-1.77-0.227-2.764-0.266c-0.488-0.032-0.962-0.103-1.457-0.144c-0.512-0.007-1.018-0.033-1.52-0.071
		c-0.984-0.128-2.053-0.053-3.046-0.177c-1.044,0.038-2.044-0.09-3.079-0.058c-1.018-0.076-2.047,0.005-3.068-0.067
		c-1.021,0.07-2.051-0.019-3.071,0.055c-1.036-0.037-2.036,0.096-3.082,0.054c-0.994,0.123-2.065,0.047-3.049,0.176
		c-0.502,0.038-1.008,0.065-1.521,0.071c-0.495,0.041-0.966,0.116-1.457,0.146c-1.013,0.055-1.855,0.151-2.701,0.224
		c-0.444,0.034-0.859,0.066-1.244,0.095c-0.41,0.074-0.784,0.156-1.14,0.203c-0.69,0.122-1.294,0.151-1.677,0.2
		C271.396,191.075,271.168,191.075,271.168,191.075z"/>
	<path style="fill:#666666;" d="M169.572,191.075c0,0,0.023-0.227,0.099-0.617c0.088-0.378,0.177-0.975,0.369-1.65
		c0.086-0.349,0.196-0.713,0.323-1.114c0.165-0.406,0.388-0.815,0.624-1.278c0.234-0.466,0.529-0.925,0.84-1.442
		c0.313-0.525,0.686-0.923,1.068-1.43c0.388-0.487,0.825-0.959,1.281-1.465c0.483-0.458,1.006-0.908,1.563-1.361
		c1.09-0.96,2.421-1.653,3.809-2.425c1.435-0.607,2.959-1.265,4.591-1.57c1.616-0.42,3.31-0.519,5-0.598
		c1.69,0.078,3.386,0.168,5.003,0.585c1.633,0.301,3.157,0.963,4.594,1.566c1.389,0.77,2.721,1.463,3.812,2.424
		c0.556,0.454,1.081,0.906,1.564,1.361c0.456,0.508,0.891,0.984,1.281,1.467c0.377,0.504,0.768,0.919,1.054,1.423
		c0.288,0.502,0.566,0.952,0.792,1.407c0.225,0.456,0.443,0.858,0.607,1.263c0.149,0.422,0.282,0.804,0.38,1.166
		c0.217,0.7,0.307,1.301,0.39,1.677c0.073,0.389,0.089,0.61,0.089,0.61s-0.236-0.006-0.636-0.045
		c-0.388-0.05-0.99-0.075-1.656-0.172c-0.345-0.035-0.696-0.099-1.083-0.151c-0.412-0.019-0.818-0.076-1.26-0.111
		c-0.866-0.091-1.77-0.227-2.764-0.266c-0.488-0.032-0.962-0.103-1.457-0.144c-0.512-0.007-1.018-0.033-1.52-0.071
		c-0.984-0.128-2.053-0.053-3.046-0.177c-1.044,0.038-2.044-0.09-3.079-0.058c-1.018-0.076-2.047,0.005-3.068-0.067
		c-1.021,0.07-2.051-0.019-3.071,0.055c-1.036-0.037-2.036,0.096-3.082,0.054c-0.994,0.123-2.065,0.047-3.049,0.176
		c-0.502,0.038-1.008,0.065-1.521,0.071c-0.495,0.041-0.967,0.116-1.457,0.146c-1.013,0.055-1.855,0.151-2.701,0.224
		c-0.444,0.034-0.859,0.066-1.244,0.095c-0.41,0.074-0.784,0.156-1.14,0.203c-0.69,0.122-1.294,0.151-1.677,0.2
		C169.802,191.075,169.572,191.075,169.572,191.075z"/>
</g>
<g>
</g>
<g>
</g>
<g>
</g>
<g>
</g>
<g>
</g>
<g>
</g>
<g>
</g>
<g>
</g>
<g>
</g>
<g>
</g>
<g>
</g>
<g>
</g>
<g>
</g>
<g>
</g>
<g>
</g>
</svg>
